<mxfile host="app.diagrams.net" agent="Mozilla/5.0 (Windows NT 10.0; Win64; x64) AppleWebKit/537.36 (KHTML, like Gecko) Chrome/129.0.0.0 Safari/537.36" version="24.7.17">
  <diagram name="PÃ¡gina-1" id="aHx3eny9ZRX5y_nfuczh">
    <mxGraphModel grid="1" page="1" gridSize="10" guides="1" tooltips="1" connect="1" arrows="1" fold="1" pageScale="1" pageWidth="827" pageHeight="1169" math="0" shadow="0">
      <root>
        <mxCell id="0" />
        <mxCell id="1" parent="0" />
        <mxCell id="fB0WcjuLbK9bO_Y00MLs-1" style="rounded=0;orthogonalLoop=1;jettySize=auto;html=1;endArrow=none;endFill=0;" edge="1" parent="1" source="fB0WcjuLbK9bO_Y00MLs-6" target="fB0WcjuLbK9bO_Y00MLs-10">
          <mxGeometry relative="1" as="geometry" />
        </mxCell>
        <mxCell id="fB0WcjuLbK9bO_Y00MLs-2" style="rounded=0;orthogonalLoop=1;jettySize=auto;html=1;endArrow=none;endFill=0;" edge="1" parent="1" source="fB0WcjuLbK9bO_Y00MLs-6" target="fB0WcjuLbK9bO_Y00MLs-7">
          <mxGeometry relative="1" as="geometry" />
        </mxCell>
        <mxCell id="fB0WcjuLbK9bO_Y00MLs-3" style="edgeStyle=none;shape=connector;rounded=0;orthogonalLoop=1;jettySize=auto;html=1;strokeColor=default;align=center;verticalAlign=middle;fontFamily=Helvetica;fontSize=11;fontColor=default;labelBackgroundColor=default;endArrow=none;endFill=0;" edge="1" parent="1" source="fB0WcjuLbK9bO_Y00MLs-6" target="fB0WcjuLbK9bO_Y00MLs-8">
          <mxGeometry relative="1" as="geometry" />
        </mxCell>
        <mxCell id="fB0WcjuLbK9bO_Y00MLs-4" style="edgeStyle=none;shape=connector;rounded=0;orthogonalLoop=1;jettySize=auto;html=1;strokeColor=default;align=center;verticalAlign=middle;fontFamily=Helvetica;fontSize=11;fontColor=default;labelBackgroundColor=default;endArrow=none;endFill=0;" edge="1" parent="1" source="fB0WcjuLbK9bO_Y00MLs-6" target="fB0WcjuLbK9bO_Y00MLs-9">
          <mxGeometry relative="1" as="geometry" />
        </mxCell>
        <mxCell id="fB0WcjuLbK9bO_Y00MLs-5" style="edgeStyle=none;shape=connector;rounded=0;orthogonalLoop=1;jettySize=auto;html=1;strokeColor=default;align=center;verticalAlign=middle;fontFamily=Helvetica;fontSize=11;fontColor=default;labelBackgroundColor=default;endArrow=none;endFill=0;" edge="1" parent="1" source="fB0WcjuLbK9bO_Y00MLs-6" target="fB0WcjuLbK9bO_Y00MLs-84">
          <mxGeometry relative="1" as="geometry" />
        </mxCell>
        <mxCell id="fB0WcjuLbK9bO_Y00MLs-6" value="Productos" style="whiteSpace=wrap;html=1;align=center;" vertex="1" parent="1">
          <mxGeometry x="290" y="310" width="100" height="40" as="geometry" />
        </mxCell>
        <mxCell id="fB0WcjuLbK9bO_Y00MLs-7" value="Categoria" style="ellipse;whiteSpace=wrap;html=1;align=center;" vertex="1" parent="1">
          <mxGeometry x="240" y="240" width="100" height="40" as="geometry" />
        </mxCell>
        <mxCell id="fB0WcjuLbK9bO_Y00MLs-8" value="precio" style="ellipse;whiteSpace=wrap;html=1;align=center;" vertex="1" parent="1">
          <mxGeometry x="340" y="240" width="100" height="40" as="geometry" />
        </mxCell>
        <mxCell id="fB0WcjuLbK9bO_Y00MLs-9" value="descripcion" style="ellipse;whiteSpace=wrap;html=1;align=center;" vertex="1" parent="1">
          <mxGeometry x="440" y="240" width="100" height="40" as="geometry" />
        </mxCell>
        <mxCell id="fB0WcjuLbK9bO_Y00MLs-10" value="Nombre" style="ellipse;whiteSpace=wrap;html=1;align=center;" vertex="1" parent="1">
          <mxGeometry x="140" y="240" width="100" height="40" as="geometry" />
        </mxCell>
        <mxCell id="fB0WcjuLbK9bO_Y00MLs-11" style="edgeStyle=none;shape=connector;rounded=0;orthogonalLoop=1;jettySize=auto;html=1;strokeColor=default;align=center;verticalAlign=middle;fontFamily=Helvetica;fontSize=11;fontColor=default;labelBackgroundColor=default;endArrow=none;endFill=0;" edge="1" parent="1" source="fB0WcjuLbK9bO_Y00MLs-12" target="fB0WcjuLbK9bO_Y00MLs-6">
          <mxGeometry relative="1" as="geometry" />
        </mxCell>
        <mxCell id="fB0WcjuLbK9bO_Y00MLs-12" value="registran" style="shape=rhombus;perimeter=rhombusPerimeter;whiteSpace=wrap;html=1;align=center;fontFamily=Helvetica;fontSize=11;fontColor=default;labelBackgroundColor=default;" vertex="1" parent="1">
          <mxGeometry x="575" y="380" width="120" height="60" as="geometry" />
        </mxCell>
        <mxCell id="fB0WcjuLbK9bO_Y00MLs-13" style="edgeStyle=none;shape=connector;rounded=0;orthogonalLoop=1;jettySize=auto;html=1;strokeColor=default;align=center;verticalAlign=middle;fontFamily=Helvetica;fontSize=11;fontColor=default;labelBackgroundColor=default;endArrow=none;endFill=0;" edge="1" parent="1" source="fB0WcjuLbK9bO_Y00MLs-14" target="fB0WcjuLbK9bO_Y00MLs-12">
          <mxGeometry relative="1" as="geometry" />
        </mxCell>
        <mxCell id="fB0WcjuLbK9bO_Y00MLs-14" value="Vendedores" style="whiteSpace=wrap;html=1;align=center;fontFamily=Helvetica;fontSize=11;fontColor=default;labelBackgroundColor=default;" vertex="1" parent="1">
          <mxGeometry x="710" y="480" width="100" height="40" as="geometry" />
        </mxCell>
        <mxCell id="fB0WcjuLbK9bO_Y00MLs-15" style="edgeStyle=none;shape=connector;rounded=0;orthogonalLoop=1;jettySize=auto;html=1;strokeColor=default;align=center;verticalAlign=middle;fontFamily=Helvetica;fontSize=11;fontColor=default;labelBackgroundColor=default;endArrow=none;endFill=0;" edge="1" parent="1" source="fB0WcjuLbK9bO_Y00MLs-16" target="fB0WcjuLbK9bO_Y00MLs-12">
          <mxGeometry relative="1" as="geometry" />
        </mxCell>
        <mxCell id="fB0WcjuLbK9bO_Y00MLs-16" value="Nombre" style="ellipse;whiteSpace=wrap;html=1;align=center;fontFamily=Helvetica;fontSize=11;fontColor=default;labelBackgroundColor=default;" vertex="1" parent="1">
          <mxGeometry x="725" y="350" width="100" height="40" as="geometry" />
        </mxCell>
        <mxCell id="fB0WcjuLbK9bO_Y00MLs-17" style="edgeStyle=none;shape=connector;rounded=0;orthogonalLoop=1;jettySize=auto;html=1;strokeColor=default;align=center;verticalAlign=middle;fontFamily=Helvetica;fontSize=11;fontColor=default;labelBackgroundColor=default;endArrow=none;endFill=0;" edge="1" parent="1" source="fB0WcjuLbK9bO_Y00MLs-18" target="fB0WcjuLbK9bO_Y00MLs-12">
          <mxGeometry relative="1" as="geometry" />
        </mxCell>
        <mxCell id="fB0WcjuLbK9bO_Y00MLs-18" value="Gmail" style="ellipse;whiteSpace=wrap;html=1;align=center;fontFamily=Helvetica;fontSize=11;fontColor=default;labelBackgroundColor=default;" vertex="1" parent="1">
          <mxGeometry x="725" y="390" width="100" height="40" as="geometry" />
        </mxCell>
        <mxCell id="fB0WcjuLbK9bO_Y00MLs-19" style="edgeStyle=none;shape=connector;rounded=0;orthogonalLoop=1;jettySize=auto;html=1;strokeColor=default;align=center;verticalAlign=middle;fontFamily=Helvetica;fontSize=11;fontColor=default;labelBackgroundColor=default;endArrow=none;endFill=0;" edge="1" parent="1" source="fB0WcjuLbK9bO_Y00MLs-20" target="fB0WcjuLbK9bO_Y00MLs-12">
          <mxGeometry relative="1" as="geometry" />
        </mxCell>
        <mxCell id="fB0WcjuLbK9bO_Y00MLs-20" value="Fecha" style="ellipse;whiteSpace=wrap;html=1;align=center;fontFamily=Helvetica;fontSize=11;fontColor=default;labelBackgroundColor=default;" vertex="1" parent="1">
          <mxGeometry x="725" y="430" width="100" height="40" as="geometry" />
        </mxCell>
        <mxCell id="fB0WcjuLbK9bO_Y00MLs-21" style="edgeStyle=none;shape=connector;rounded=0;orthogonalLoop=1;jettySize=auto;html=1;strokeColor=default;align=center;verticalAlign=middle;fontFamily=Helvetica;fontSize=11;fontColor=default;labelBackgroundColor=default;endArrow=none;endFill=0;" edge="1" parent="1" source="fB0WcjuLbK9bO_Y00MLs-22" target="fB0WcjuLbK9bO_Y00MLs-27">
          <mxGeometry relative="1" as="geometry" />
        </mxCell>
        <mxCell id="fB0WcjuLbK9bO_Y00MLs-22" value="realizan" style="shape=rhombus;perimeter=rhombusPerimeter;whiteSpace=wrap;html=1;align=center;fontFamily=Helvetica;fontSize=11;fontColor=default;labelBackgroundColor=default;" vertex="1" parent="1">
          <mxGeometry x="10" y="500" width="120" height="60" as="geometry" />
        </mxCell>
        <mxCell id="fB0WcjuLbK9bO_Y00MLs-23" style="edgeStyle=none;shape=connector;rounded=0;orthogonalLoop=1;jettySize=auto;html=1;strokeColor=default;align=center;verticalAlign=middle;fontFamily=Helvetica;fontSize=11;fontColor=default;labelBackgroundColor=default;endArrow=none;endFill=0;" edge="1" parent="1" source="fB0WcjuLbK9bO_Y00MLs-24" target="fB0WcjuLbK9bO_Y00MLs-22">
          <mxGeometry relative="1" as="geometry" />
        </mxCell>
        <mxCell id="fB0WcjuLbK9bO_Y00MLs-24" value="compradores" style="whiteSpace=wrap;html=1;align=center;fontFamily=Helvetica;fontSize=11;fontColor=default;labelBackgroundColor=default;" vertex="1" parent="1">
          <mxGeometry x="20" y="630" width="100" height="40" as="geometry" />
        </mxCell>
        <mxCell id="fB0WcjuLbK9bO_Y00MLs-25" style="edgeStyle=none;shape=connector;rounded=0;orthogonalLoop=1;jettySize=auto;html=1;strokeColor=default;align=center;verticalAlign=middle;fontFamily=Helvetica;fontSize=11;fontColor=default;labelBackgroundColor=default;endArrow=none;endFill=0;" edge="1" parent="1" source="fB0WcjuLbK9bO_Y00MLs-27" target="fB0WcjuLbK9bO_Y00MLs-30">
          <mxGeometry relative="1" as="geometry" />
        </mxCell>
        <mxCell id="fB0WcjuLbK9bO_Y00MLs-26" style="edgeStyle=none;shape=connector;rounded=0;orthogonalLoop=1;jettySize=auto;html=1;strokeColor=default;align=center;verticalAlign=middle;fontFamily=Helvetica;fontSize=11;fontColor=default;labelBackgroundColor=default;endArrow=none;endFill=0;" edge="1" parent="1" source="fB0WcjuLbK9bO_Y00MLs-27" target="fB0WcjuLbK9bO_Y00MLs-32">
          <mxGeometry relative="1" as="geometry" />
        </mxCell>
        <mxCell id="fB0WcjuLbK9bO_Y00MLs-27" value="pedidos" style="whiteSpace=wrap;html=1;align=center;fontFamily=Helvetica;fontSize=11;fontColor=default;labelBackgroundColor=default;" vertex="1" parent="1">
          <mxGeometry x="20" y="410" width="100" height="40" as="geometry" />
        </mxCell>
        <mxCell id="fB0WcjuLbK9bO_Y00MLs-28" style="edgeStyle=none;shape=connector;rounded=0;orthogonalLoop=1;jettySize=auto;html=1;strokeColor=default;align=center;verticalAlign=middle;fontFamily=Helvetica;fontSize=11;fontColor=default;labelBackgroundColor=default;endArrow=none;endFill=0;" edge="1" parent="1" source="fB0WcjuLbK9bO_Y00MLs-30" target="fB0WcjuLbK9bO_Y00MLs-6">
          <mxGeometry relative="1" as="geometry" />
        </mxCell>
        <mxCell id="fB0WcjuLbK9bO_Y00MLs-29" style="edgeStyle=none;shape=connector;rounded=0;orthogonalLoop=1;jettySize=auto;html=1;strokeColor=default;align=center;verticalAlign=middle;fontFamily=Helvetica;fontSize=11;fontColor=default;labelBackgroundColor=default;endArrow=none;endFill=0;" edge="1" parent="1" source="fB0WcjuLbK9bO_Y00MLs-30" target="fB0WcjuLbK9bO_Y00MLs-31">
          <mxGeometry relative="1" as="geometry" />
        </mxCell>
        <mxCell id="fB0WcjuLbK9bO_Y00MLs-30" value="Recogen" style="shape=rhombus;perimeter=rhombusPerimeter;whiteSpace=wrap;html=1;align=center;fontFamily=Helvetica;fontSize=11;fontColor=default;labelBackgroundColor=default;" vertex="1" parent="1">
          <mxGeometry x="130" y="300" width="120" height="60" as="geometry" />
        </mxCell>
        <mxCell id="fB0WcjuLbK9bO_Y00MLs-31" value="Fecha del pedido" style="shape=ext;margin=3;double=1;whiteSpace=wrap;html=1;align=center;fontFamily=Helvetica;fontSize=11;fontColor=default;labelBackgroundColor=default;" vertex="1" parent="1">
          <mxGeometry y="310" width="100" height="40" as="geometry" />
        </mxCell>
        <mxCell id="fB0WcjuLbK9bO_Y00MLs-32" value="tienen" style="shape=rhombus;perimeter=rhombusPerimeter;whiteSpace=wrap;html=1;align=center;fontFamily=Helvetica;fontSize=11;fontColor=default;labelBackgroundColor=default;" vertex="1" parent="1">
          <mxGeometry x="130" y="600" width="120" height="60" as="geometry" />
        </mxCell>
        <mxCell id="fB0WcjuLbK9bO_Y00MLs-33" style="edgeStyle=none;shape=connector;rounded=0;orthogonalLoop=1;jettySize=auto;html=1;strokeColor=default;align=center;verticalAlign=middle;fontFamily=Helvetica;fontSize=11;fontColor=default;labelBackgroundColor=default;endArrow=none;endFill=0;" edge="1" parent="1" source="fB0WcjuLbK9bO_Y00MLs-34" target="fB0WcjuLbK9bO_Y00MLs-32">
          <mxGeometry relative="1" as="geometry" />
        </mxCell>
        <mxCell id="fB0WcjuLbK9bO_Y00MLs-34" value="Estado de envio" style="whiteSpace=wrap;html=1;align=center;fontFamily=Helvetica;fontSize=11;fontColor=default;labelBackgroundColor=default;" vertex="1" parent="1">
          <mxGeometry x="140" y="690" width="100" height="40" as="geometry" />
        </mxCell>
        <mxCell id="fB0WcjuLbK9bO_Y00MLs-35" style="edgeStyle=none;shape=connector;rounded=0;orthogonalLoop=1;jettySize=auto;html=1;strokeColor=default;align=center;verticalAlign=middle;fontFamily=Helvetica;fontSize=11;fontColor=default;labelBackgroundColor=default;endArrow=none;endFill=0;" edge="1" parent="1" source="fB0WcjuLbK9bO_Y00MLs-36" target="fB0WcjuLbK9bO_Y00MLs-32">
          <mxGeometry relative="1" as="geometry" />
        </mxCell>
        <mxCell id="fB0WcjuLbK9bO_Y00MLs-36" value="Estado" style="whiteSpace=wrap;html=1;align=center;fontFamily=Helvetica;fontSize=11;fontColor=default;labelBackgroundColor=default;" vertex="1" parent="1">
          <mxGeometry x="270" y="690" width="100" height="40" as="geometry" />
        </mxCell>
        <mxCell id="fB0WcjuLbK9bO_Y00MLs-37" style="edgeStyle=none;shape=connector;rounded=0;orthogonalLoop=1;jettySize=auto;html=1;strokeColor=default;align=center;verticalAlign=middle;fontFamily=Helvetica;fontSize=11;fontColor=default;labelBackgroundColor=default;endArrow=none;endFill=0;" edge="1" parent="1" source="fB0WcjuLbK9bO_Y00MLs-38" target="fB0WcjuLbK9bO_Y00MLs-32">
          <mxGeometry relative="1" as="geometry" />
        </mxCell>
        <mxCell id="fB0WcjuLbK9bO_Y00MLs-38" value="Metodo de pago" style="whiteSpace=wrap;html=1;align=center;fontFamily=Helvetica;fontSize=11;fontColor=default;labelBackgroundColor=default;" vertex="1" parent="1">
          <mxGeometry x="400" y="690" width="100" height="40" as="geometry" />
        </mxCell>
        <mxCell id="fB0WcjuLbK9bO_Y00MLs-39" style="edgeStyle=none;shape=connector;rounded=0;orthogonalLoop=1;jettySize=auto;html=1;strokeColor=default;align=center;verticalAlign=middle;fontFamily=Helvetica;fontSize=11;fontColor=default;labelBackgroundColor=default;endArrow=none;endFill=0;" edge="1" parent="1" source="fB0WcjuLbK9bO_Y00MLs-42" target="fB0WcjuLbK9bO_Y00MLs-34">
          <mxGeometry relative="1" as="geometry" />
        </mxCell>
        <mxCell id="fB0WcjuLbK9bO_Y00MLs-40" style="edgeStyle=none;shape=connector;rounded=0;orthogonalLoop=1;jettySize=auto;html=1;strokeColor=default;align=center;verticalAlign=middle;fontFamily=Helvetica;fontSize=11;fontColor=default;labelBackgroundColor=default;endArrow=none;endFill=0;" edge="1" parent="1" source="fB0WcjuLbK9bO_Y00MLs-42" target="fB0WcjuLbK9bO_Y00MLs-45">
          <mxGeometry relative="1" as="geometry" />
        </mxCell>
        <mxCell id="fB0WcjuLbK9bO_Y00MLs-41" style="edgeStyle=none;shape=connector;rounded=0;orthogonalLoop=1;jettySize=auto;html=1;strokeColor=default;align=center;verticalAlign=middle;fontFamily=Helvetica;fontSize=11;fontColor=default;labelBackgroundColor=default;endArrow=none;endFill=0;" edge="1" parent="1" source="fB0WcjuLbK9bO_Y00MLs-42" target="fB0WcjuLbK9bO_Y00MLs-46">
          <mxGeometry relative="1" as="geometry" />
        </mxCell>
        <mxCell id="fB0WcjuLbK9bO_Y00MLs-42" value="Puede ser" style="shape=rhombus;perimeter=rhombusPerimeter;whiteSpace=wrap;html=1;align=center;fontFamily=Helvetica;fontSize=11;fontColor=default;labelBackgroundColor=default;" vertex="1" parent="1">
          <mxGeometry x="130" y="770" width="120" height="60" as="geometry" />
        </mxCell>
        <mxCell id="fB0WcjuLbK9bO_Y00MLs-43" style="edgeStyle=none;shape=connector;rounded=0;orthogonalLoop=1;jettySize=auto;html=1;strokeColor=default;align=center;verticalAlign=middle;fontFamily=Helvetica;fontSize=11;fontColor=default;labelBackgroundColor=default;endArrow=none;endFill=0;" edge="1" parent="1" source="fB0WcjuLbK9bO_Y00MLs-44" target="fB0WcjuLbK9bO_Y00MLs-42">
          <mxGeometry relative="1" as="geometry" />
        </mxCell>
        <mxCell id="fB0WcjuLbK9bO_Y00MLs-44" value="En proceso" style="whiteSpace=wrap;html=1;align=center;fontFamily=Helvetica;fontSize=11;fontColor=default;labelBackgroundColor=default;" vertex="1" parent="1">
          <mxGeometry x="10" y="780" width="100" height="40" as="geometry" />
        </mxCell>
        <mxCell id="fB0WcjuLbK9bO_Y00MLs-45" value="entregado" style="whiteSpace=wrap;html=1;align=center;fontFamily=Helvetica;fontSize=11;fontColor=default;labelBackgroundColor=default;" vertex="1" parent="1">
          <mxGeometry x="140" y="850" width="100" height="40" as="geometry" />
        </mxCell>
        <mxCell id="fB0WcjuLbK9bO_Y00MLs-46" value="recibido" style="whiteSpace=wrap;html=1;align=center;fontFamily=Helvetica;fontSize=11;fontColor=default;labelBackgroundColor=default;" vertex="1" parent="1">
          <mxGeometry x="10" y="850" width="100" height="40" as="geometry" />
        </mxCell>
        <mxCell id="fB0WcjuLbK9bO_Y00MLs-47" style="edgeStyle=none;shape=connector;rounded=0;orthogonalLoop=1;jettySize=auto;html=1;strokeColor=default;align=center;verticalAlign=middle;fontFamily=Helvetica;fontSize=11;fontColor=default;labelBackgroundColor=default;endArrow=none;endFill=0;" edge="1" parent="1" source="fB0WcjuLbK9bO_Y00MLs-48" target="fB0WcjuLbK9bO_Y00MLs-36">
          <mxGeometry relative="1" as="geometry" />
        </mxCell>
        <mxCell id="fB0WcjuLbK9bO_Y00MLs-48" value="" style="triangle;whiteSpace=wrap;html=1;fontFamily=Helvetica;fontSize=11;fontColor=default;labelBackgroundColor=default;rotation=90;" vertex="1" parent="1">
          <mxGeometry x="330" y="760" width="60" height="80" as="geometry" />
        </mxCell>
        <mxCell id="fB0WcjuLbK9bO_Y00MLs-49" style="edgeStyle=none;shape=connector;rounded=0;orthogonalLoop=1;jettySize=auto;html=1;strokeColor=default;align=center;verticalAlign=middle;fontFamily=Helvetica;fontSize=11;fontColor=default;labelBackgroundColor=default;endArrow=none;endFill=0;" edge="1" parent="1" source="fB0WcjuLbK9bO_Y00MLs-50" target="fB0WcjuLbK9bO_Y00MLs-48">
          <mxGeometry relative="1" as="geometry" />
        </mxCell>
        <mxCell id="fB0WcjuLbK9bO_Y00MLs-50" value="pendiente" style="whiteSpace=wrap;html=1;align=center;fontFamily=Helvetica;fontSize=11;fontColor=default;labelBackgroundColor=default;" vertex="1" parent="1">
          <mxGeometry x="380" y="850" width="100" height="40" as="geometry" />
        </mxCell>
        <mxCell id="fB0WcjuLbK9bO_Y00MLs-51" style="edgeStyle=none;shape=connector;rounded=0;orthogonalLoop=1;jettySize=auto;html=1;strokeColor=default;align=center;verticalAlign=middle;fontFamily=Helvetica;fontSize=11;fontColor=default;labelBackgroundColor=default;endArrow=none;endFill=0;" edge="1" parent="1" source="fB0WcjuLbK9bO_Y00MLs-52" target="fB0WcjuLbK9bO_Y00MLs-48">
          <mxGeometry relative="1" as="geometry" />
        </mxCell>
        <mxCell id="fB0WcjuLbK9bO_Y00MLs-52" value="Pagado" style="whiteSpace=wrap;html=1;align=center;fontFamily=Helvetica;fontSize=11;fontColor=default;labelBackgroundColor=default;" vertex="1" parent="1">
          <mxGeometry x="250" y="850" width="100" height="40" as="geometry" />
        </mxCell>
        <mxCell id="fB0WcjuLbK9bO_Y00MLs-53" style="edgeStyle=none;shape=connector;rounded=0;orthogonalLoop=1;jettySize=auto;html=1;strokeColor=default;align=center;verticalAlign=middle;fontFamily=Helvetica;fontSize=11;fontColor=default;labelBackgroundColor=default;endArrow=none;endFill=0;" edge="1" parent="1" source="fB0WcjuLbK9bO_Y00MLs-56" target="fB0WcjuLbK9bO_Y00MLs-59">
          <mxGeometry relative="1" as="geometry" />
        </mxCell>
        <mxCell id="fB0WcjuLbK9bO_Y00MLs-54" style="edgeStyle=none;shape=connector;rounded=0;orthogonalLoop=1;jettySize=auto;html=1;strokeColor=default;align=center;verticalAlign=middle;fontFamily=Helvetica;fontSize=11;fontColor=default;labelBackgroundColor=default;endArrow=none;endFill=0;" edge="1" parent="1" source="fB0WcjuLbK9bO_Y00MLs-56" target="fB0WcjuLbK9bO_Y00MLs-60">
          <mxGeometry relative="1" as="geometry" />
        </mxCell>
        <mxCell id="fB0WcjuLbK9bO_Y00MLs-55" style="edgeStyle=none;shape=connector;rounded=0;orthogonalLoop=1;jettySize=auto;html=1;strokeColor=default;align=center;verticalAlign=middle;fontFamily=Helvetica;fontSize=11;fontColor=default;labelBackgroundColor=default;endArrow=none;endFill=0;" edge="1" parent="1" source="fB0WcjuLbK9bO_Y00MLs-56" target="fB0WcjuLbK9bO_Y00MLs-38">
          <mxGeometry relative="1" as="geometry" />
        </mxCell>
        <mxCell id="fB0WcjuLbK9bO_Y00MLs-56" value="Puede ser" style="shape=rhombus;perimeter=rhombusPerimeter;whiteSpace=wrap;html=1;align=center;fontFamily=Helvetica;fontSize=11;fontColor=default;labelBackgroundColor=default;" vertex="1" parent="1">
          <mxGeometry x="440" y="760" width="120" height="60" as="geometry" />
        </mxCell>
        <mxCell id="fB0WcjuLbK9bO_Y00MLs-57" style="edgeStyle=none;shape=connector;rounded=0;orthogonalLoop=1;jettySize=auto;html=1;strokeColor=default;align=center;verticalAlign=middle;fontFamily=Helvetica;fontSize=11;fontColor=default;labelBackgroundColor=default;endArrow=none;endFill=0;" edge="1" parent="1" source="fB0WcjuLbK9bO_Y00MLs-58" target="fB0WcjuLbK9bO_Y00MLs-56">
          <mxGeometry relative="1" as="geometry" />
        </mxCell>
        <mxCell id="fB0WcjuLbK9bO_Y00MLs-58" value="contrarembolso" style="whiteSpace=wrap;html=1;align=center;fontFamily=Helvetica;fontSize=11;fontColor=default;labelBackgroundColor=default;" vertex="1" parent="1">
          <mxGeometry x="650" y="770" width="100" height="40" as="geometry" />
        </mxCell>
        <mxCell id="fB0WcjuLbK9bO_Y00MLs-59" value="transferencia" style="whiteSpace=wrap;html=1;align=center;fontFamily=Helvetica;fontSize=11;fontColor=default;labelBackgroundColor=default;" vertex="1" parent="1">
          <mxGeometry x="640" y="830" width="100" height="40" as="geometry" />
        </mxCell>
        <mxCell id="fB0WcjuLbK9bO_Y00MLs-60" value="bizum" style="whiteSpace=wrap;html=1;align=center;fontFamily=Helvetica;fontSize=11;fontColor=default;labelBackgroundColor=default;" vertex="1" parent="1">
          <mxGeometry x="520" y="850" width="100" height="40" as="geometry" />
        </mxCell>
        <mxCell id="fB0WcjuLbK9bO_Y00MLs-61" style="edgeStyle=none;shape=connector;rounded=0;orthogonalLoop=1;jettySize=auto;html=1;strokeColor=default;align=center;verticalAlign=middle;fontFamily=Helvetica;fontSize=11;fontColor=default;labelBackgroundColor=default;endArrow=none;endFill=0;" edge="1" parent="1" source="fB0WcjuLbK9bO_Y00MLs-62" target="fB0WcjuLbK9bO_Y00MLs-56">
          <mxGeometry relative="1" as="geometry" />
        </mxCell>
        <mxCell id="fB0WcjuLbK9bO_Y00MLs-62" value="tajeta" style="whiteSpace=wrap;html=1;align=center;fontFamily=Helvetica;fontSize=11;fontColor=default;labelBackgroundColor=default;" vertex="1" parent="1">
          <mxGeometry x="580" y="720" width="100" height="40" as="geometry" />
        </mxCell>
        <mxCell id="fB0WcjuLbK9bO_Y00MLs-63" style="edgeStyle=none;shape=connector;rounded=0;orthogonalLoop=1;jettySize=auto;html=1;strokeColor=default;align=center;verticalAlign=middle;fontFamily=Helvetica;fontSize=11;fontColor=default;labelBackgroundColor=default;endArrow=none;endFill=0;" edge="1" parent="1" source="fB0WcjuLbK9bO_Y00MLs-64" target="fB0WcjuLbK9bO_Y00MLs-6">
          <mxGeometry relative="1" as="geometry" />
        </mxCell>
        <mxCell id="fB0WcjuLbK9bO_Y00MLs-64" value="tienen" style="shape=rhombus;perimeter=rhombusPerimeter;whiteSpace=wrap;html=1;align=center;fontFamily=Helvetica;fontSize=11;fontColor=default;labelBackgroundColor=default;" vertex="1" parent="1">
          <mxGeometry x="460" y="300" width="120" height="60" as="geometry" />
        </mxCell>
        <mxCell id="fB0WcjuLbK9bO_Y00MLs-65" style="edgeStyle=none;shape=connector;rounded=0;orthogonalLoop=1;jettySize=auto;html=1;strokeColor=default;align=center;verticalAlign=middle;fontFamily=Helvetica;fontSize=11;fontColor=default;labelBackgroundColor=default;endArrow=none;endFill=0;" edge="1" parent="1" source="fB0WcjuLbK9bO_Y00MLs-66" target="fB0WcjuLbK9bO_Y00MLs-64">
          <mxGeometry relative="1" as="geometry" />
        </mxCell>
        <mxCell id="fB0WcjuLbK9bO_Y00MLs-66" value="oertas" style="whiteSpace=wrap;html=1;align=center;fontFamily=Helvetica;fontSize=11;fontColor=default;labelBackgroundColor=default;" vertex="1" parent="1">
          <mxGeometry x="630" y="310" width="100" height="40" as="geometry" />
        </mxCell>
        <mxCell id="fB0WcjuLbK9bO_Y00MLs-67" style="edgeStyle=none;shape=connector;rounded=0;orthogonalLoop=1;jettySize=auto;html=1;strokeColor=default;align=center;verticalAlign=middle;fontFamily=Helvetica;fontSize=11;fontColor=default;labelBackgroundColor=default;endArrow=none;endFill=0;" edge="1" parent="1" source="fB0WcjuLbK9bO_Y00MLs-68" target="fB0WcjuLbK9bO_Y00MLs-82">
          <mxGeometry relative="1" as="geometry" />
        </mxCell>
        <mxCell id="fB0WcjuLbK9bO_Y00MLs-68" value="nuevos" style="whiteSpace=wrap;html=1;align=center;fontFamily=Helvetica;fontSize=11;fontColor=default;labelBackgroundColor=default;" vertex="1" parent="1">
          <mxGeometry x="140" y="390" width="100" height="40" as="geometry" />
        </mxCell>
        <mxCell id="fB0WcjuLbK9bO_Y00MLs-69" style="edgeStyle=none;shape=connector;rounded=0;orthogonalLoop=1;jettySize=auto;html=1;strokeColor=default;align=center;verticalAlign=middle;fontFamily=Helvetica;fontSize=11;fontColor=default;labelBackgroundColor=default;endArrow=none;endFill=0;" edge="1" parent="1" source="fB0WcjuLbK9bO_Y00MLs-70" target="fB0WcjuLbK9bO_Y00MLs-82">
          <mxGeometry relative="1" as="geometry" />
        </mxCell>
        <mxCell id="fB0WcjuLbK9bO_Y00MLs-70" value="segunda mano" style="whiteSpace=wrap;html=1;align=center;fontFamily=Helvetica;fontSize=11;fontColor=default;labelBackgroundColor=default;" vertex="1" parent="1">
          <mxGeometry x="413.5" y="390" width="100" height="40" as="geometry" />
        </mxCell>
        <mxCell id="fB0WcjuLbK9bO_Y00MLs-71" style="edgeStyle=none;shape=connector;rounded=0;orthogonalLoop=1;jettySize=auto;html=1;strokeColor=default;align=center;verticalAlign=middle;fontFamily=Helvetica;fontSize=11;fontColor=default;labelBackgroundColor=default;endArrow=none;endFill=0;" edge="1" parent="1" source="fB0WcjuLbK9bO_Y00MLs-74" target="fB0WcjuLbK9bO_Y00MLs-68">
          <mxGeometry relative="1" as="geometry" />
        </mxCell>
        <mxCell id="fB0WcjuLbK9bO_Y00MLs-72" style="edgeStyle=none;shape=connector;rounded=0;orthogonalLoop=1;jettySize=auto;html=1;strokeColor=default;align=center;verticalAlign=middle;fontFamily=Helvetica;fontSize=11;fontColor=default;labelBackgroundColor=default;endArrow=none;endFill=0;" edge="1" parent="1" source="fB0WcjuLbK9bO_Y00MLs-74" target="fB0WcjuLbK9bO_Y00MLs-75">
          <mxGeometry relative="1" as="geometry" />
        </mxCell>
        <mxCell id="fB0WcjuLbK9bO_Y00MLs-73" style="edgeStyle=none;shape=connector;rounded=0;orthogonalLoop=1;jettySize=auto;html=1;strokeColor=default;align=center;verticalAlign=middle;fontFamily=Helvetica;fontSize=11;fontColor=default;labelBackgroundColor=default;endArrow=none;endFill=0;" edge="1" parent="1" source="fB0WcjuLbK9bO_Y00MLs-74" target="fB0WcjuLbK9bO_Y00MLs-76">
          <mxGeometry relative="1" as="geometry" />
        </mxCell>
        <mxCell id="fB0WcjuLbK9bO_Y00MLs-74" value="" style="triangle;whiteSpace=wrap;html=1;fontFamily=Helvetica;fontSize=11;fontColor=default;labelBackgroundColor=default;rotation=90;" vertex="1" parent="1">
          <mxGeometry x="260" y="470" width="60" height="80" as="geometry" />
        </mxCell>
        <mxCell id="fB0WcjuLbK9bO_Y00MLs-75" value="Edicion limitada" style="whiteSpace=wrap;html=1;align=center;fontFamily=Helvetica;fontSize=11;fontColor=default;labelBackgroundColor=default;" vertex="1" parent="1">
          <mxGeometry x="180" y="550" width="100" height="40" as="geometry" />
        </mxCell>
        <mxCell id="fB0WcjuLbK9bO_Y00MLs-76" value="Edicion no limitada" style="whiteSpace=wrap;html=1;align=center;fontFamily=Helvetica;fontSize=11;fontColor=default;labelBackgroundColor=default;" vertex="1" parent="1">
          <mxGeometry x="310" y="550" width="100" height="40" as="geometry" />
        </mxCell>
        <mxCell id="fB0WcjuLbK9bO_Y00MLs-77" style="edgeStyle=none;shape=connector;rounded=0;orthogonalLoop=1;jettySize=auto;html=1;strokeColor=default;align=center;verticalAlign=middle;fontFamily=Helvetica;fontSize=11;fontColor=default;labelBackgroundColor=default;endArrow=none;endFill=0;" edge="1" parent="1" source="fB0WcjuLbK9bO_Y00MLs-78" target="fB0WcjuLbK9bO_Y00MLs-70">
          <mxGeometry relative="1" as="geometry" />
        </mxCell>
        <mxCell id="fB0WcjuLbK9bO_Y00MLs-78" value="caja de embalaje" style="ellipse;whiteSpace=wrap;html=1;align=center;fontFamily=Helvetica;fontSize=11;fontColor=default;labelBackgroundColor=default;" vertex="1" parent="1">
          <mxGeometry x="513.5" y="470" width="100" height="40" as="geometry" />
        </mxCell>
        <mxCell id="fB0WcjuLbK9bO_Y00MLs-79" style="edgeStyle=none;shape=connector;rounded=0;orthogonalLoop=1;jettySize=auto;html=1;strokeColor=default;align=center;verticalAlign=middle;fontFamily=Helvetica;fontSize=11;fontColor=default;labelBackgroundColor=default;endArrow=none;endFill=0;" edge="1" parent="1" source="fB0WcjuLbK9bO_Y00MLs-80" target="fB0WcjuLbK9bO_Y00MLs-70">
          <mxGeometry relative="1" as="geometry" />
        </mxCell>
        <mxCell id="fB0WcjuLbK9bO_Y00MLs-80" value="condicion" style="ellipse;whiteSpace=wrap;html=1;align=center;fontFamily=Helvetica;fontSize=11;fontColor=default;labelBackgroundColor=default;" vertex="1" parent="1">
          <mxGeometry x="513.5" y="420" width="100" height="40" as="geometry" />
        </mxCell>
        <mxCell id="fB0WcjuLbK9bO_Y00MLs-81" style="edgeStyle=none;shape=connector;rounded=0;orthogonalLoop=1;jettySize=auto;html=1;strokeColor=default;align=center;verticalAlign=middle;fontFamily=Helvetica;fontSize=11;fontColor=default;labelBackgroundColor=default;endArrow=none;endFill=0;" edge="1" parent="1" source="fB0WcjuLbK9bO_Y00MLs-82" target="fB0WcjuLbK9bO_Y00MLs-6">
          <mxGeometry relative="1" as="geometry" />
        </mxCell>
        <mxCell id="fB0WcjuLbK9bO_Y00MLs-82" value="" style="triangle;whiteSpace=wrap;html=1;fontFamily=Helvetica;fontSize=11;fontColor=default;labelBackgroundColor=default;rotation=90;" vertex="1" parent="1">
          <mxGeometry x="270" y="370" width="60" height="80" as="geometry" />
        </mxCell>
        <mxCell id="fB0WcjuLbK9bO_Y00MLs-83" style="edgeStyle=none;shape=connector;rounded=0;orthogonalLoop=1;jettySize=auto;html=1;strokeColor=default;align=center;verticalAlign=middle;fontFamily=Helvetica;fontSize=11;fontColor=default;labelBackgroundColor=default;endArrow=none;endFill=0;" edge="1" parent="1" source="fB0WcjuLbK9bO_Y00MLs-84" target="fB0WcjuLbK9bO_Y00MLs-86">
          <mxGeometry relative="1" as="geometry" />
        </mxCell>
        <mxCell id="fB0WcjuLbK9bO_Y00MLs-84" value="pertenecen" style="shape=rhombus;perimeter=rhombusPerimeter;whiteSpace=wrap;html=1;align=center;fontFamily=Helvetica;fontSize=11;fontColor=default;labelBackgroundColor=default;" vertex="1" parent="1">
          <mxGeometry x="370" y="470" width="120" height="60" as="geometry" />
        </mxCell>
        <mxCell id="fB0WcjuLbK9bO_Y00MLs-85" style="edgeStyle=none;shape=connector;rounded=0;orthogonalLoop=1;jettySize=auto;html=1;strokeColor=default;align=center;verticalAlign=middle;fontFamily=Helvetica;fontSize=11;fontColor=default;labelBackgroundColor=default;endArrow=none;endFill=0;" edge="1" parent="1" source="fB0WcjuLbK9bO_Y00MLs-86" target="fB0WcjuLbK9bO_Y00MLs-87">
          <mxGeometry relative="1" as="geometry" />
        </mxCell>
        <mxCell id="fB0WcjuLbK9bO_Y00MLs-86" value="ediciones especiales" style="whiteSpace=wrap;html=1;align=center;fontFamily=Helvetica;fontSize=11;fontColor=default;labelBackgroundColor=default;" vertex="1" parent="1">
          <mxGeometry x="500" y="550" width="100" height="40" as="geometry" />
        </mxCell>
        <mxCell id="fB0WcjuLbK9bO_Y00MLs-87" value="Nombre" style="ellipse;whiteSpace=wrap;html=1;align=center;fontFamily=Helvetica;fontSize=11;fontColor=default;labelBackgroundColor=default;" vertex="1" parent="1">
          <mxGeometry x="640" y="550" width="100" height="40" as="geometry" />
        </mxCell>
        <mxCell id="fB0WcjuLbK9bO_Y00MLs-88" value="Fecha" style="ellipse;whiteSpace=wrap;html=1;align=center;fontFamily=Helvetica;fontSize=11;fontColor=default;labelBackgroundColor=default;" vertex="1" parent="1">
          <mxGeometry x="640" y="600" width="100" height="40" as="geometry" />
        </mxCell>
        <mxCell id="fB0WcjuLbK9bO_Y00MLs-89" style="edgeStyle=none;shape=connector;rounded=0;orthogonalLoop=1;jettySize=auto;html=1;entryX=0.85;entryY=0.9;entryDx=0;entryDy=0;entryPerimeter=0;strokeColor=default;align=center;verticalAlign=middle;fontFamily=Helvetica;fontSize=11;fontColor=default;labelBackgroundColor=default;endArrow=none;endFill=0;" edge="1" parent="1" source="fB0WcjuLbK9bO_Y00MLs-88" target="fB0WcjuLbK9bO_Y00MLs-86">
          <mxGeometry relative="1" as="geometry" />
        </mxCell>
      </root>
    </mxGraphModel>
  </diagram>
</mxfile>
